Coordinates
version=1
nRows=19
nColumns=24
inDegrees=yes

Units are S.I. units (second, meters, Newtons, ...)
Angles are in degrees.

endheader
time	pelvis_tilt	pelvis_list	pelvis_rotation	pelvis_tx	pelvis_ty	pelvis_tz	hip_flexion_r	hip_adduction_r	hip_rotation_r	knee_angle_r	ankle_angle_r	subtalar_angle_r	mtp_angle_r	hip_flexion_l	hip_adduction_l	hip_rotation_l	knee_angle_l	ankle_angle_l	subtalar_angle_l	mtp_angle_l	lumbar_extension	lumbar_bending	lumbar_rotation
      2.90000000	     -1.10944225	     -3.32097154	     -2.01979211	      0.00287485	      0.98366116	      0.01349155	     22.44006344	      3.63246825	    -18.37718651	     -6.76560131	      6.21766856	      0.00000000	      0.00000000	     -5.81140986	     -1.82806343	     -5.05278070	    -11.81386074	     23.83419318	      0.00000000	      0.00000000	    -19.65428212	      3.99993545	     -2.32459441
      2.91000000	     -1.05947309	     -3.36320815	     -1.87716691	      0.00356030	      0.98213469	      0.01466357	     22.58464428	      3.66431120	    -18.47090945	     -7.53836062	      6.15344805	      0.00000000	      0.00000000	     -6.27597280	     -1.95991118	     -4.96324925	    -12.07543081	     24.12763328	      0.00000000	      0.00000000	    -19.65426609	      4.04914879	     -2.28969119
      2.92000000	     -0.95075186	     -3.42897056	     -1.70372396	      0.00444079	      0.98075749	      0.01587785	     22.64029761	      3.69205163	    -18.58360406	     -8.47464463	      6.03062107	      0.00000000	      0.00000000	     -6.77768922	     -2.12759023	     -4.83216463	    -12.41150375	     24.43766270	      0.00000000	      0.00000000	    -19.68950961	      4.13228573	     -2.29161707
      2.93000000	     -0.74721513	     -3.53124791	     -1.50190481	      0.00540633	      0.97956394	      0.01703795	     22.68675082	      3.69205302	    -18.72093941	     -9.76935650	      5.89614123	      0.00000000	      0.00000000	     -7.34243771	     -2.33187127	     -4.64061557	    -12.84756545	     24.81163096	      0.00000000	      0.00000000	    -19.82419513	      4.27412586	     -2.29038598
      2.94000000	     -0.50153140	     -3.62489507	     -1.28862671	      0.00655545	      0.97854207	      0.01822015	     22.69689502	      3.66142141	    -18.80954934	    -11.21714233	      5.80881324	      0.00000000	      0.00000000	     -7.91804402	     -2.53188779	     -4.42723221	    -13.36586976	     25.15747112	      0.00000000	      0.00000000	    -19.97472867	      4.41377807	     -2.31040641
      2.95000000	     -0.17984283	     -3.56292646	     -1.07402901	      0.00774398	      0.97765539	      0.01933790	     22.72975607	      3.42514870	    -18.79371823	    -13.00524689	      6.28193771	      0.00000000	      0.00000000	     -8.46033181	     -2.54793290	     -4.03673959	    -14.13206060	     25.71552530	      0.00000000	      0.00000000	    -20.19730632	      4.38588229	     -2.37380667
      2.96000000	      0.04653699	     -3.56937921	     -0.87413666	      0.00910786	      0.97688923	      0.02057807	     22.81673801	      3.27879024	    -18.68001117	    -14.73282945	      6.38249444	      0.00000000	      0.00000000	     -8.91057604	     -2.65322863	     -3.77601147	    -14.85386057	     25.87190462	      0.00000000	      0.00000000	    -20.28013036	      4.43738555	     -2.41238805
      2.97000000	      0.29778519	     -3.71913208	     -0.63366375	      0.01071727	      0.97651096	      0.02187323	     22.75074852	      3.30517409	    -18.54925993	    -16.23525310	      6.14192816	      0.00000000	      0.00000000	     -9.38548473	     -2.94082227	     -3.64871277	    -15.58410743	     25.74359291	      0.00000000	      0.00000000	    -20.35535555	      4.65901764	     -2.44838675
      2.98000000	      0.62092562	     -3.62636830	     -0.42371193	      0.01221732	      0.97631887	      0.02304932	     22.71249610	      3.06422827	    -18.31615238	    -17.99701274	      6.60569664	      0.00000000	      0.00000000	     -9.72654619	     -2.93806256	     -3.28739838	    -16.73322754	     25.78190808	      0.00000000	      0.00000000	    -20.52012202	      4.61820529	     -2.51458353
      2.99000000	      0.91110703	     -3.64139905	     -0.18619507	      0.01380587	      0.97647908	      0.02434763	     22.55235566	      2.98131227	    -18.09196981	    -19.42747273	      6.82444774	      0.00000000	      0.00000000	     -9.94926601	     -3.08679137	     -3.06722286	    -17.99713307	     25.47151944	      0.00000000	      0.00000000	    -20.63260706	      4.69236045	     -2.57598858
      3.00000000	      1.07904393	     -3.63527018	      0.08575311	      0.01546049	      0.97669731	      0.02555548	     22.47260367	      2.87867358	    -17.92073083	    -20.77819987	      7.14852009	      0.00000000	      0.00000000	     -9.92513771	     -3.22405753	     -2.78351051	    -19.44624800	     25.00811046	      0.00000000	      0.00000000	    -20.57810659	      4.77203746	     -2.69478588
      3.01000000	      1.37913587	     -3.66761361	      0.37799725	      0.01715397	      0.97746123	      0.02684830	     22.07113595	      2.87994199	    -17.74179240	    -21.75954789	      7.51544799	      0.00000000	      0.00000000	     -9.91806282	     -3.43685250	     -2.58042759	    -21.09834737	     24.25838830	      0.00000000	      0.00000000	    -20.67103764	      4.88529294	     -2.78942987
      3.02000000	      1.70642385	     -3.70498092	      0.56855824	      0.01882624	      0.97854281	      0.02827127	     21.56563624	      2.94476212	    -17.53305657	    -22.59202580	      7.70875930	      0.00000000	      0.00000000	     -9.86857856	     -3.66067341	     -2.59046807	    -22.85342640	     23.27808659	      0.00000000	      0.00000000	    -20.80728228	      4.98071770	     -2.77970243
      3.03000000	      2.00427962	     -3.69510639	      0.89709540	      0.02038095	      0.97981036	      0.02951673	     20.94950594	      2.96262257	    -17.41820738	    -23.14554861	      8.18747587	      0.00000000	      0.00000000	     -9.54973377	     -3.88288299	     -2.46151714	    -24.94652205	     22.00159936	      0.00000000	      0.00000000	    -20.90181830	      5.06207017	     -2.81832902
      3.04000000	      2.00326639	     -3.73243827	      1.45397599	      0.02177890	      0.98071353	      0.03042057	     20.55414047	      2.94178606	    -17.74107770	    -23.52933107	      8.73159647	      0.00000000	      0.00000000	     -8.55676067	     -4.20069837	     -1.99260883	    -27.59695840	     20.57338144	      0.00000000	      0.00000000	    -20.61997941	      5.27209015	     -3.13454037
      3.05000000	      2.24804542	     -3.72613098	      1.77512306	      0.02320416	      0.98222663	      0.03173359	     19.78803386	      3.02776584	    -17.74616018	    -23.68501754	      9.21151986	      0.00000000	      0.00000000	     -7.89462745	     -4.48255833	     -1.98088150	    -30.06791076	     18.72763649	      0.00000000	      0.00000000	    -20.64969895	      5.34483074	     -3.16768354
      3.06000000	      2.47716101	     -3.71756093	      2.11631672	      0.02448179	      0.98379114	      0.03294398	     18.95952042	      3.12118580	    -17.82733908	    -23.67836857	      9.61616645	      0.00000000	      0.00000000	     -7.04073468	     -4.77903015	     -1.94925711	    -32.77093028	     16.79050864	      0.00000000	      0.00000000	    -20.67112069	      5.42994261	     -3.19849918
      3.07000000	      2.63533135	     -3.74410999	      2.54679450	      0.02553718	      0.98529093	      0.03402088	     18.11811557	      3.24187149	    -18.03687110	    -23.47242139	      9.98651754	      0.00000000	      0.00000000	     -5.90780150	     -5.14554350	     -1.88895754	    -35.72109345	     14.66491521	      0.00000000	      0.00000000	    -20.62444097	      5.57428729	     -3.23452427
      3.08000000	      2.80763767	     -3.74546171	      2.89615395	      0.02644617	      0.98679646	      0.03516748	     17.23235176	      3.37503953	    -18.18223754	    -23.19751868	     10.29354753	      0.00000000	      0.00000000	     -4.70532981	     -5.47792168	     -1.89686640	    -38.75399940	     12.62569048	      0.00000000	      0.00000000	    -20.61260664	      5.66158527	     -3.19616092
